<?xml version="1.0" encoding="UTF-8" standalone="no"?>
<!-- Created with Inkscape (http://www.inkscape.org/) -->

<svg
   version="1.1"
   id="svg1"
   width="995.22668"
   height="397.48001"
   viewBox="0 0 995.22668 397.48001"
   sodipodi:docname="MozeeMotorsports_SmallGear_4C.eps"
   xmlns:inkscape="http://www.inkscape.org/namespaces/inkscape"
   xmlns:sodipodi="http://sodipodi.sourceforge.net/DTD/sodipodi-0.dtd"
   xmlns="http://www.w3.org/2000/svg"
   xmlns:svg="http://www.w3.org/2000/svg">
  <defs
     id="defs1" />
  <sodipodi:namedview
     id="namedview1"
     pagecolor="#ffffff"
     bordercolor="#000000"
     borderopacity="0.25"
     inkscape:showpageshadow="2"
     inkscape:pageopacity="0.0"
     inkscape:pagecheckerboard="0"
     inkscape:deskcolor="#d1d1d1">
    <inkscape:page
       x="0"
       y="0"
       inkscape:label="1"
       id="page1"
       width="995.22668"
       height="397.48001"
       margin="0"
       bleed="0" />
  </sodipodi:namedview>
  <g
     id="g1"
     inkscape:groupmode="layer"
     inkscape:label="1">
    <g
       id="group-R5">
      <path
         id="path2"
         d="m 6696.05,1653.12 c 0,0 0.17,-0.02 0.47,-0.07 -0.3,0.04 -0.47,0.07 -0.47,0.07 z m -9.85,-66.4 c 0,0 0.17,-0.03 0.47,-0.07 -0.3,0.04 -0.47,0.07 -0.47,0.07 z m 20.12,132.43 c -0.3,0.04 -0.47,0.08 -0.47,0.08 0,0 0.18,-0.03 0.47,-0.08 z m -99.18,94.89 c -103.27,15.32 -258.96,24.33 -264.59,-13.66 l -11.73,-69.04 c -0.44,-2.96 21.44,-15.71 24.25,-16.49 -3.83,-3.05 -26.19,-6.59 -26.79,-10.69 l -7.26,-38.92 c -0.45,-3.03 21.52,-15.84 24.45,-16.54 -3.98,-3.1 -26.42,-6.7 -27.04,-10.88 l -7.25,-38.92 c -0.45,-3.04 21.52,-15.84 24.45,-16.54 -3.98,-3.1 -26.42,-6.7 -27.04,-10.88 l -39.17,-264.11 c -1.13,-7.61 6.48,-11.11 32.56,-14.98 7.66,-1.14 13.84,-1.8 14.1,-1.82 0.97,-0.11 1.95,0.04 2.86,0.41 35.65,14.75 75.79,21.62 124.73,20.9 0,0 -75.77,-733.982 -88.15,-764.9 -5.85,-14.621 -44.02,-90.058 -84.19,-119.898 -24.11,-17.902 -39.81,-33.211 -50.04,-45.383 -9.54,-11.34 -32.53,-125.078 -34.89,-130.5 l 82.41,-22.929 -18.69,-118.879 c 1.04,-0.192 3.04,-0.532 5.66,-0.981 l -8.42,-57.0702 c -1.76,-11.9179 6.47,-23.0195 18.4,-24.7812 l 0.45,-0.0664 c 11.93,-1.7617 23.02,6.4766 24.78,18.4062 l 8.28,56.0626 c 2.02,-0.352 3.59,-0.621 4.51,-0.781 0,0 14.42,77.289 19.76,118.32 l 24.36,-9.699 87.63,-11.832 -18,-113.8401 c 1.04,-0.1797 3.04,-0.5273 5.66,-0.9766 l -8.43,-57.0625 C 6413,13.1602 6421.24,2.07031 6433.17,0.308594 l 0.45,-0.066406 c 11.93,-1.761718 23.02,6.476562 24.78,18.406212 l 8.28,56.0625 c 2.02,-0.3515 3.59,-0.6289 4.5,-0.789 0,0 13.98,74.2971 19.51,116.3671 l 82.08,1.281 c -0.7,5.871 11.41,130.821 5.56,144.43 -6.27,14.609 -16.89,33.809 -34.78,57.922 -47.98,64.609 -28.95,106.808 -32.52,147.539 -3.16,36.16 106.78,744.739 106.78,744.739 45.9,-13.41 76.23,-31.01 110.63,-56.13 0.71,-0.51 1.52,-0.86 2.37,-1.03 0.28,-0.05 6.79,-1.27 14.96,-2.48 v 0 c 8.46,-1.26 15.43,-2.02 20.71,-2.26 3.07,-0.14 7.64,-0.36 11.25,0.84 0.39,0.1 0.77,0.22 1.13,0.37 1.49,0.62 2.69,1.69 3.47,3.03 0.09,0.16 0.16,0.33 0.24,0.5 0.08,0.16 0.16,0.33 0.23,0.51 0.06,0.15 0.12,0.32 0.17,0.48 0.11,0.37 0.2,0.74 0.26,1.12 l 39.18,264.11 c 0.62,4.18 -20.67,8.34 -23.57,12.45 3,-0.18 25.7,11.94 26.15,14.97 l 5.98,31.65 c 0.62,4.17 -19.38,15.61 -22.29,19.72 3,-0.18 25.7,11.94 26.15,14.97 l 5.47,32.25 c 0.61,4.09 -18.83,14.84 -21.61,18.87 2.92,-0.07 25.51,12.02 25.95,14.98 l 11.72,69.04 c 5.64,37.99 -145.96,74.56 -249.22,89.88"
         style="fill:#4f4c4c;fill-opacity:1;fill-rule:nonzero;stroke:none"
         transform="matrix(0.13333333,0,0,-0.13333333,0,397.48)" />
      <path
         id="path3"
         d="m 0,256.621 70.9688,403.52 H 369.996 L 350.277,550.391 H 176.781 l -9.859,-56.52 h 157.73 L 306.242,387.41 H 148.527 L 125.516,256.621 H 0"
         style="fill:#bdbcbc;fill-opacity:1;fill-rule:nonzero;stroke:none"
         transform="matrix(0.13333333,0,0,-0.13333333,0,397.48)" />
      <path
         id="path4"
         d="m 707.18,478.762 c 0,47.308 -26.289,76.886 -65.723,76.886 -47.973,0 -86.098,-42.718 -86.098,-117.648 0,-47.309 26.293,-76.891 65.727,-76.891 47.973,0 86.094,42.731 86.094,117.653 z M 427.219,434.07 c 0,134.719 95.285,232.649 219.496,232.649 116.988,0 188.621,-76.899 188.621,-184.028 0,-134.722 -95.297,-232.64 -219.508,-232.64 -116.976,0 -188.609,76.89 -188.609,184.019"
         style="fill:#bdbcbc;fill-opacity:1;fill-rule:nonzero;stroke:none"
         transform="matrix(0.13333333,0,0,-0.13333333,0,397.48)" />
      <path
         id="path5"
         d="m 1058.84,472.18 h 53.88 c 34.83,0 52.59,18.41 52.59,47.98 0,20.371 -10.53,34.172 -40.76,34.172 h -51.26 z m -17.09,-99.891 -20.38,-115.668 H 895.855 l 70.969,403.52 h 188.626 c 78.85,0 132.74,-46.661 132.74,-124.86 0,-70.332 -38.11,-120.269 -92,-145.25 l 65.72,-133.41 h -134.07 l -53.23,115.668 h -32.86"
         style="fill:#bdbcbc;fill-opacity:1;fill-rule:nonzero;stroke:none"
         transform="matrix(0.13333333,0,0,-0.13333333,0,397.48)" />
      <path
         id="path6"
         d="m 1532.72,256.621 -30.24,216.219 -38.11,-216.219 h -118.3 l 70.98,403.52 h 155.76 l 30.23,-216.211 107.12,216.211 h 161.01 l -70.97,-403.52 h -118.3 l 38.11,216.219 -107.12,-216.219 h -80.17"
         style="fill:#bdbcbc;fill-opacity:1;fill-rule:nonzero;stroke:none"
         transform="matrix(0.13333333,0,0,-0.13333333,0,397.48)" />
      <path
         id="path7"
         d="m 1932.35,390.691 c 0,11.829 0.67,23.661 3.29,36.797 l 41.41,232.653 h 126.84 L 2063.8,434.719 c -1.32,-7.231 -1.97,-13.797 -1.97,-19.707 0,-32.86 17.74,-51.27 48.62,-51.27 38.13,0 59.82,25.637 67.7,70.977 l 40.09,225.422 h 126.83 l -42.06,-236.602 c -20.37,-113.68 -90.03,-173.488 -205.7,-173.488 -99.89,0 -164.96,51.258 -164.96,140.64"
         style="fill:#bdbcbc;fill-opacity:1;fill-rule:nonzero;stroke:none"
         transform="matrix(0.13333333,0,0,-0.13333333,0,397.48)" />
      <path
         id="path8"
         d="m 2450.93,660.141 h 127.5 l -51.92,-294.422 h 173.5 l -19.06,-109.098 h -300.99 l 70.97,403.52"
         style="fill:#bdbcbc;fill-opacity:1;fill-rule:nonzero;stroke:none"
         transform="matrix(0.13333333,0,0,-0.13333333,0,397.48)" />
      <path
         id="path9"
         d="m 2977.38,418.289 h 67.69 l -15.77,92.672 z m 145.24,241.852 76.23,-403.52 h -126.18 l -9.86,58.5 h -143.27 l -32.2,-58.5 h -126.18 l 228.71,403.52 h 132.75"
         style="fill:#bdbcbc;fill-opacity:1;fill-rule:nonzero;stroke:none"
         transform="matrix(0.13333333,0,0,-0.13333333,0,397.48)" />
      <path
         id="path10"
         d="m 3929.07,660.141 -70.97,-403.52 h -127.5 l 26.29,149.848 h -128.15 l -26.3,-149.848 h -127.49 l 70.97,403.52 h 127.5 L 3647.8,514.898 h 128.14 l 25.64,145.243 h 127.49"
         style="fill:#bdbcbc;fill-opacity:1;fill-rule:nonzero;stroke:none"
         transform="matrix(0.13333333,0,0,-0.13333333,0,397.48)" />
      <path
         id="path11"
         d="m 4293.21,660.141 h 138.67 l -192.56,-270.762 -23,-132.758 h -128.15 l 23,132.758 -94.64,270.762 h 132.09 l 46.67,-143.922 97.92,143.922"
         style="fill:#bdbcbc;fill-opacity:1;fill-rule:nonzero;stroke:none"
         transform="matrix(0.13333333,0,0,-0.13333333,0,397.48)" />
      <path
         id="path12"
         d="m 4665.23,505.699 c 22.35,0 37.46,9.86 37.46,30.891 0,13.801 -8.54,21.031 -28.25,21.031 h -53.23 l -9.2,-51.922 z m -78.86,-145.89 h 61.77 c 21.69,0 36.81,12.48 36.81,31.531 0,13.808 -7.89,23.012 -26.95,23.012 h -61.78 z m 218.2,24.972 c 0,-78.211 -63.1,-128.16 -153.13,-128.16 h -203.07 l 70.96,403.52 h 191.91 c 71.64,0 114.35,-32.2 114.35,-93.981 0,-51.918 -34.83,-90.031 -71.64,-102.519 30.9,-13.149 50.62,-41.399 50.62,-78.86"
         style="fill:#bdbcbc;fill-opacity:1;fill-rule:nonzero;stroke:none"
         transform="matrix(0.13333333,0,0,-0.13333333,0,397.48)" />
      <path
         id="path13"
         d="m 5042.51,472.18 h 53.89 c 34.83,0 52.57,18.41 52.57,47.98 0,20.371 -10.51,34.172 -40.74,34.172 h -51.26 z m -17.09,-99.891 -20.37,-115.668 h -125.53 l 70.98,403.52 h 188.61 c 78.87,0 132.76,-46.661 132.76,-124.86 0,-70.332 -38.11,-120.269 -92.01,-145.25 l 65.72,-133.41 h -134.07 l -53.22,115.668 h -32.87"
         style="fill:#bdbcbc;fill-opacity:1;fill-rule:nonzero;stroke:none"
         transform="matrix(0.13333333,0,0,-0.13333333,0,397.48)" />
      <path
         id="path14"
         d="m 5457.25,256.621 h -127.5 l 70.98,403.52 h 127.5 l -70.98,-403.52"
         style="fill:#bdbcbc;fill-opacity:1;fill-rule:nonzero;stroke:none"
         transform="matrix(0.13333333,0,0,-0.13333333,0,397.48)" />
      <path
         id="path15"
         d="m 5741.19,365.719 c 63.09,0 106.46,44.679 106.46,111.722 0,46.661 -24.97,74.258 -73.61,74.258 h -30.88 l -32.86,-185.98 z m -103.84,294.422 h 162.33 c 114.35,0 174.81,-63.75 174.81,-165.61 0,-143.269 -102.52,-237.91 -245.79,-237.91 h -162.33 l 70.98,403.52"
         style="fill:#bdbcbc;fill-opacity:1;fill-rule:nonzero;stroke:none"
         transform="matrix(0.13333333,0,0,-0.13333333,0,397.48)" />
      <path
         id="path16"
         d="m 792.281,1768.05 -88.32,631.68 -111.363,-631.68 H 247 l 207.355,1178.89 h 455.047 l 88.321,-631.68 312.967,631.68 h 470.4 L 1573.73,1768.05 h -345.61 l 111.36,631.68 -312.96,-631.68 H 792.281"
         style="fill:#ffffff;fill-opacity:1;fill-rule:nonzero;stroke:none"
         transform="matrix(0.13333333,0,0,-0.13333333,0,397.48)" />
      <path
         id="path17"
         d="m 792.281,1768.05 -88.32,631.68 -111.363,-631.68 H 247 l 207.355,1178.89 h 455.047 l 88.321,-631.68 312.967,631.68 h 470.4 L 1573.73,1768.05 h -345.61 l 111.36,631.68 -312.96,-631.68 z"
         style="fill:none;stroke:#c51e25;stroke-width:30;stroke-linecap:butt;stroke-linejoin:miter;stroke-miterlimit:10;stroke-dasharray:none;stroke-opacity:1"
         transform="matrix(0.13333333,0,0,-0.13333333,0,397.48)" />
      <path
         id="path18"
         d="m 2593.22,2417.02 c 0,138.24 -76.8,224.64 -192,224.64 -140.16,0 -251.52,-124.8 -251.52,-343.68 0,-138.25 76.8,-224.64 192,-224.64 140.16,0 251.52,124.8 251.52,343.68 z m -817.93,-130.56 c 0,393.59 278.41,679.68 641.29,679.68 341.76,0 551.04,-224.64 551.04,-537.6 0,-393.6 -278.4,-679.69 -641.28,-679.69 -341.76,0 -551.05,224.64 -551.05,537.61"
         style="fill:#ffffff;fill-opacity:1;fill-rule:nonzero;stroke:none"
         transform="matrix(0.13333333,0,0,-0.13333333,0,397.48)" />
      <path
         id="path19"
         d="m 2593.22,2417.02 c 0,138.24 -76.8,224.64 -192,224.64 -140.16,0 -251.52,-124.8 -251.52,-343.68 0,-138.25 76.8,-224.64 192,-224.64 140.16,0 251.52,124.8 251.52,343.68 z m -817.93,-130.56 c 0,393.59 278.41,679.68 641.29,679.68 341.76,0 551.04,-224.64 551.04,-537.6 0,-393.6 -278.4,-679.69 -641.28,-679.69 -341.76,0 -551.05,224.64 -551.05,537.61 z"
         style="fill:none;stroke:#c51e25;stroke-width:30;stroke-linecap:butt;stroke-linejoin:miter;stroke-miterlimit:10;stroke-dasharray:none;stroke-opacity:1"
         transform="matrix(0.13333333,0,0,-0.13333333,0,397.48)" />
      <path
         id="path20"
         d="m 3893.04,1768.05 h -986.89 l 48,280.33 608.65,581.76 h -499.2 l 55.67,316.8 h 975.37 l -49.92,-278.4 -595.2,-581.77 h 499.2 l -55.68,-318.72"
         style="fill:#ffffff;fill-opacity:1;fill-rule:nonzero;stroke:none"
         transform="matrix(0.13333333,0,0,-0.13333333,0,397.48)" />
      <path
         id="path21"
         d="m 3893.04,1768.05 h -986.89 l 48,280.33 608.65,581.76 h -499.2 l 55.67,316.8 h 975.37 l -49.92,-278.4 -595.2,-581.77 h 499.2 z"
         style="fill:none;stroke:#c51e25;stroke-width:30;stroke-linecap:butt;stroke-linejoin:miter;stroke-miterlimit:10;stroke-dasharray:none;stroke-opacity:1"
         transform="matrix(0.13333333,0,0,-0.13333333,0,397.48)" />
      <path
         id="path22"
         d="m 5117.99,2946.94 -55.68,-316.8 h -520.33 l -21.12,-111.36 h 476.17 l -53.77,-307.2 H 4467.1 l -21.12,-124.81 h 520.33 l -55.68,-318.72 h -887.05 l 207.36,1178.89 h 887.05"
         style="fill:#ffffff;fill-opacity:1;fill-rule:nonzero;stroke:none"
         transform="matrix(0.13333333,0,0,-0.13333333,0,397.48)" />
      <path
         id="path23"
         d="m 5117.99,2946.94 -55.68,-316.8 h -520.33 l -21.12,-111.36 h 476.17 l -53.77,-307.2 H 4467.1 l -21.12,-124.81 h 520.33 l -55.68,-318.72 h -887.05 l 207.36,1178.89 z"
         style="fill:none;stroke:#c51e25;stroke-width:30;stroke-linecap:butt;stroke-linejoin:miter;stroke-miterlimit:10;stroke-dasharray:none;stroke-opacity:1"
         transform="matrix(0.13333333,0,0,-0.13333333,0,397.48)" />
      <path
         id="path24"
         d="m 6149,2946.94 -55.67,-316.8 H 5573 l -21.12,-111.36 h 476.16 l -53.76,-307.2 H 5498.12 L 5477,2086.77 h 520.32 l -55.68,-318.72 H 5054.6 l 207.36,1178.89 H 6149"
         style="fill:#ffffff;fill-opacity:1;fill-rule:nonzero;stroke:none"
         transform="matrix(0.13333333,0,0,-0.13333333,0,397.48)" />
      <path
         id="path25"
         d="m 6149,2946.94 -55.67,-316.8 H 5573 l -21.12,-111.36 h 476.16 l -53.76,-307.2 H 5498.12 L 5477,2086.77 h 520.32 l -55.68,-318.72 H 5054.6 l 207.36,1178.89 z"
         style="fill:none;stroke:#c51e25;stroke-width:30;stroke-linecap:butt;stroke-linejoin:miter;stroke-miterlimit:10;stroke-dasharray:none;stroke-opacity:1"
         transform="matrix(0.13333333,0,0,-0.13333333,0,397.48)" />
      <path
         id="path26"
         d="M 419.902,978.051 369.305,1339.96 305.504,978.051 h -198 l 118.801,675.399 h 260.699 l 50.601,-361.89 179.301,361.89 h 269.5 L 867.609,978.051 H 669.605 L 733.406,1339.96 554.109,978.051 H 419.902"
         style="fill:#c51e25;fill-opacity:1;fill-rule:nonzero;stroke:none"
         transform="matrix(0.13333333,0,0,-0.13333333,0,397.48)" />
      <path
         id="path27"
         d="m 1446.19,1349.86 c 0,79.2 -44,128.69 -110,128.69 -80.3,0 -144.1,-71.49 -144.1,-196.89 0,-79.2 44,-128.7 110,-128.7 80.3,0 144.1,71.49 144.1,196.9 z m -468.6,-74.8 c 0,225.49 159.5,389.4 367.4,389.4 195.8,0 315.7,-128.7 315.7,-308.01 0,-225.5 -159.5,-389.391 -367.4,-389.391 -195.8,0 -315.7,128.701 -315.7,308.001"
         style="fill:#c51e25;fill-opacity:1;fill-rule:nonzero;stroke:none"
         transform="matrix(0.13333333,0,0,-0.13333333,0,397.48)" />
      <path
         id="path28"
         d="m 1716.78,1653.45 h 611.61 l -31.9,-181.49 h -199.11 l -86.9,-493.909 h -213.4 l 86.9,493.909 h -199.1 l 31.9,181.49"
         style="fill:#c51e25;fill-opacity:1;fill-rule:nonzero;stroke:none"
         transform="matrix(0.13333333,0,0,-0.13333333,0,397.48)" />
      <path
         id="path29"
         d="m 2767.28,1349.86 c 0,79.2 -44,128.69 -110,128.69 -80.3,0 -144.1,-71.49 -144.1,-196.89 0,-79.2 44,-128.7 110,-128.7 80.3,0 144.1,71.49 144.1,196.9 z m -468.6,-74.8 c 0,225.49 159.5,389.4 367.4,389.4 195.8,0 315.7,-128.7 315.7,-308.01 0,-225.5 -159.5,-389.391 -367.4,-389.391 -195.8,0 -315.7,128.701 -315.7,308.001"
         style="fill:#c51e25;fill-opacity:1;fill-rule:nonzero;stroke:none"
         transform="matrix(0.13333333,0,0,-0.13333333,0,397.48)" />
      <path
         id="path30"
         d="m 3245.77,1338.85 h 90.2 c 58.3,0 88,30.81 88,80.31 0,34.1 -17.6,57.19 -68.2,57.19 h -85.8 z m -28.6,-167.19 -34.1,-193.609 h -210.1 l 118.8,675.399 h 315.7 c 132,0 222.2,-78.09 222.2,-208.99 0,-117.7 -63.8,-201.31 -154,-243.11 l 110,-223.299 h -224.4 l -89.1,193.609 h -55"
         style="fill:#c51e25;fill-opacity:1;fill-rule:nonzero;stroke:none"
         transform="matrix(0.13333333,0,0,-0.13333333,0,397.48)" />
      <path
         id="path31"
         d="m 4039.97,1445.55 c -6.6,27.5 -30.8,51.7 -73.7,51.7 -37.4,0 -60.5,-15.4 -60.5,-41.79 0,-16.51 9.9,-24.2 29.7,-30.8 l 128.7,-40.71 c 99,-30.8 143,-89.09 143,-169.39 0,-161.7 -136.4,-247.501 -298.1,-247.501 -173.8,0 -276.1,83.591 -288.2,218.891 h 218.9 c 7.7,-32.99 36.3,-50.59 75.9,-50.59 41.8,0 63.8,16.49 66,40.69 0,23.11 -15.4,33.01 -46.2,41.81 l -112.2,33 c -83.61,24.2 -141.91,65.99 -141.91,165 0,154 132.01,248.6 290.41,248.6 183.7,0 273.9,-96.81 278.3,-218.91 h -210.1"
         style="fill:#c51e25;fill-opacity:1;fill-rule:nonzero;stroke:none"
         transform="matrix(0.13333333,0,0,-0.13333333,0,397.48)" />
      <path
         id="path32"
         d="m 4499.76,1339.96 h 78.1 c 56.1,0 89.1,29.7 89.1,79.2 0,35.19 -20.9,57.19 -69.3,57.19 h -74.8 z m -31.9,-177.1 -31.9,-184.809 h -210.1 l 118.8,675.399 h 293.7 c 146.3,0 235.4,-73.7 235.4,-207.9 0,-180.4 -133.1,-282.69 -299.2,-282.69 h -106.7"
         style="fill:#c51e25;fill-opacity:1;fill-rule:nonzero;stroke:none"
         transform="matrix(0.13333333,0,0,-0.13333333,0,397.48)" />
      <path
         id="path33"
         d="m 5355.54,1349.86 c 0,79.2 -44,128.69 -110,128.69 -80.3,0 -144.1,-71.49 -144.1,-196.89 0,-79.2 44.01,-128.7 110,-128.7 80.31,0 144.1,71.49 144.1,196.9 z m -468.6,-74.8 c 0,225.49 159.5,389.4 367.4,389.4 195.8,0 315.71,-128.7 315.71,-308.01 0,-225.5 -159.51,-389.391 -367.41,-389.391 -195.8,0 -315.7,128.701 -315.7,308.001"
         style="fill:#c51e25;fill-opacity:1;fill-rule:nonzero;stroke:none"
         transform="matrix(0.13333333,0,0,-0.13333333,0,397.48)" />
      <path
         id="path34"
         d="m 5834.03,1338.85 h 90.21 c 58.3,0 87.99,30.81 87.99,80.31 0,34.1 -17.59,57.19 -68.2,57.19 h -85.8 z m -28.6,-167.19 -34.09,-193.609 h -210.11 l 118.8,675.399 h 315.7 c 132,0 222.21,-78.09 222.21,-208.99 0,-117.7 -63.81,-201.31 -154.01,-243.11 l 110,-223.299 h -224.4 l -89.1,193.609 h -55"
         style="fill:#c51e25;fill-opacity:1;fill-rule:nonzero;stroke:none"
         transform="matrix(0.13333333,0,0,-0.13333333,0,397.48)" />
      <path
         id="path35"
         d="m 7254.13,1445.55 c -6.6,27.5 -30.8,51.7 -73.7,51.7 -37.41,0 -60.5,-15.4 -60.5,-41.79 0,-16.51 9.9,-24.2 29.7,-30.8 l 128.7,-40.71 c 99,-30.8 143,-89.09 143,-169.39 0,-161.7 -136.4,-247.501 -298.1,-247.501 -173.8,0 -276.1,83.591 -288.2,218.891 h 218.89 c 7.71,-32.99 36.31,-50.59 75.91,-50.59 41.8,0 63.8,16.49 66,40.69 0,23.11 -15.4,33.01 -46.2,41.81 l -112.2,33 c -83.6,24.2 -141.91,65.99 -141.91,165 0,154 132.01,248.6 290.4,248.6 183.71,0 273.91,-96.81 278.31,-218.91 h -210.1"
         style="fill:#c51e25;fill-opacity:1;fill-rule:nonzero;stroke:none"
         transform="matrix(0.13333333,0,0,-0.13333333,0,397.48)" />
      <path
         id="path36"
         d="m 6634.98,766.41 h 739.09 l 20,66.199 h -742.23"
         style="fill:#bdbcbc;fill-opacity:1;fill-rule:nonzero;stroke:none"
         transform="matrix(0.13333333,0,0,-0.13333333,0,397.48)" />
      <path
         id="path37"
         d="M 6229.09,832.609 H 98.4414 l -10,-66.199 H 6217.94"
         style="fill:#bdbcbc;fill-opacity:1;fill-rule:nonzero;stroke:none"
         transform="matrix(0.13333333,0,0,-0.13333333,0,397.48)" />
    </g>
  </g>
</svg>
